<?xml version="1.0" encoding="utf-8"?>
<!-- Uploaded to: SVG Repo, www.svgrepo.com, Generator: SVG Repo Mixer Tools -->
<svg width="800px" height="800px" viewBox="0 0 1024 1024" class="icon"  version="1.1" xmlns="http://www.w3.org/2000/svg"><path d="M213.4 521.4c4.4 155.5 131.8 280.2 288.4 280.2 159.3 0 288.5-129.2 288.5-288.5 0-156.2-124.1-283.3-279-288.3v296.6" fill="#55B7A8" /><path d="M416.7 515.6c1.3 45.9 38.9 82.7 85.1 82.7 47 0 85.1-38.1 85.1-85.1 0-46.1-36.6-83.6-82.3-85.1v87.5" fill="#FFFFFF" /><path d="M510.6 960.4c-2.7 0-5.5 0-8.1-0.1l0.3-16c2.6 0 5.2 0.1 7.9 0.1v16zM486.1 959.7c-5.4-0.3-10.9-0.7-16.3-1.2l1.4-15.9c5.2 0.5 10.5 0.9 15.7 1.1l-0.8 16z m-32.5-2.9c-5.4-0.7-10.8-1.5-16.2-2.4l2.6-15.8c5.1 0.8 10.4 1.6 15.6 2.3l-2 15.9z m-32.3-5.3c-5.3-1.1-10.7-2.3-16-3.5l3.7-15.6c5.1 1.2 10.3 2.4 15.4 3.4l-3.1 15.7z m-31.8-7.7c-5.2-1.5-10.5-3-15.7-4.7l4.9-15.2c5 1.6 10.1 3.1 15.1 4.5l-4.3 15.4z m-31.1-10c-5.1-1.8-10.3-3.8-15.3-5.9l6-14.8c4.9 2 9.8 3.9 14.8 5.6l-5.5 15.1zM328 921.6c-5-2.2-9.9-4.6-14.8-7l7.1-14.4c4.7 2.3 9.5 4.6 14.3 6.7l-6.6 14.7z m-29.4-14.5c-4.8-2.6-9.6-5.3-14.3-8l8.1-13.8c4.5 2.6 9.1 5.3 13.8 7.7l-7.6 14.1z m-28.2-16.5c-4.6-2.9-9.2-6-13.6-9l9.1-13.2c4.3 3 8.7 5.9 13.1 8.7l-8.6 13.5zM243.5 872c-4.3-3.2-8.7-6.6-12.9-10l10-12.5c4.1 3.3 8.3 6.5 12.5 9.7l-9.6 12.8zM218 851.5c-4.1-3.6-8.2-7.2-12.2-10.9l10.9-11.7c3.8 3.6 7.8 7.1 11.7 10.5L218 851.5z m-23.9-22.3c-3.8-3.8-7.6-7.8-11.3-11.8l11.7-10.9c3.6 3.8 7.2 7.7 10.9 11.3l-11.3 11.4z m-22.3-23.9c-3.5-4.1-7.1-8.3-10.4-12.6l12.5-10c3.3 4.1 6.7 8.2 10.1 12.1l-12.2 10.5z m-20.4-25.5c-3.2-4.3-6.4-8.8-9.5-13.3l13.2-9.1c3 4.3 6 8.6 9.2 12.8l-12.9 9.6zM132.9 753c-2.9-4.6-5.8-9.3-8.5-13.9l13.8-8.1c2.6 4.5 5.4 9 8.2 13.4l-13.5 8.6z m-16.5-28.2c-2.6-4.8-5.1-9.6-7.5-14.5l14.4-7.1c2.3 4.7 4.7 9.4 7.2 14l-14.1 7.6zM102 695.6c-2.2-4.9-4.4-10-6.4-15l14.8-6c2 4.8 4 9.7 6.2 14.5l-14.6 6.5z m-12.3-30.3c-1.8-5.1-3.6-10.3-5.3-15.5l15.2-4.9c1.6 5 3.3 10 5.1 14.9l-15 5.5z m-9.9-31.1c-1.5-5.2-2.9-10.5-4.1-15.8l15.6-3.8c1.2 5.1 2.6 10.2 4 15.2l-15.5 4.4z m-7.7-31.7c-1.1-5.3-2.1-10.7-3-16.1l15.8-2.6c0.9 5.2 1.8 10.4 2.9 15.5l-15.7 3.2z m-5.3-32.3c-0.7-5.4-1.3-10.8-1.8-16.2l15.9-1.4c0.5 5.2 1 10.5 1.7 15.7l-15.8 1.9z m-3-32.5c-0.3-5.4-0.5-10.9-0.6-16.3l16-0.3c0.1 5.2 0.3 10.5 0.6 15.8l-16 0.8z m15.4-32.4l-16-0.3c0.1-5.4 0.3-10.9 0.6-16.3l16 0.9c-0.3 5.1-0.5 10.4-0.6 15.7z m1.7-31.5L65 472.4c0.5-5.4 1.1-10.9 1.8-16.2l15.9 2c-0.8 5.1-1.4 10.4-1.8 15.6z m3.9-31.2L69 440c0.9-5.4 1.9-10.8 2.9-16.1l15.7 3.2c-1 5.1-1.9 10.3-2.8 15.5z m6.3-30.9L75.5 408c1.3-5.3 2.7-10.6 4.1-15.8l15.4 4.3c-1.4 5-2.7 10.1-3.9 15.2z m8.5-30.4l-15.2-4.9c1.7-5.2 3.4-10.4 5.3-15.5l15 5.4c-1.8 5-3.5 10-5.1 15z m10.7-29.7l-14.8-6c2-5 4.2-10.1 6.4-15.1l14.6 6.5c-2.2 4.9-4.2 9.8-6.2 14.6z m12.9-28.8l-14.4-7.1c2.4-4.9 4.9-9.8 7.5-14.6l14.1 7.6c-2.5 4.7-4.9 9.4-7.2 14.1z m14.9-27.8l-13.8-8.1c2.8-4.7 5.6-9.4 8.5-14l13.5 8.6c-2.7 4.5-5.5 9-8.2 13.5z m17-26.6l-13.2-9.1c3.1-4.5 6.3-8.9 9.5-13.3l12.8 9.6c-3.1 4.2-6.2 8.5-9.1 12.8z m18.8-25.3l-12.5-10c3.4-4.2 6.9-8.5 10.5-12.6L184 231c-3.4 3.9-6.8 8-10.1 12.1z m20.6-23.9l-11.7-10.9c3.7-4 7.5-7.9 11.3-11.8l11.3 11.3c-3.6 3.8-7.3 7.6-10.9 11.4z m22.3-22.2l-10.9-11.7c4-3.7 8.1-7.4 12.2-10.9l10.5 12.1c-4 3.4-8 6.9-11.8 10.5z m23.8-20.6l-10-12.5c4.2-3.4 8.6-6.8 12.9-10l9.6 12.8c-4.2 3.1-8.4 6.4-12.5 9.7z m25.3-18.9l-9.1-13.2c4.5-3.1 9-6.1 13.6-9l8.6 13.5c-4.4 2.9-8.8 5.8-13.1 8.7z m26.5-16.9l-8.1-13.8c4.7-2.7 9.5-5.4 14.2-8l7.6 14.1c-4.6 2.5-9.2 5.1-13.7 7.7z m27.7-14.9l-7.1-14.4c4.8-2.4 9.8-4.7 14.8-6.9l6.5 14.6c-4.7 2.2-9.5 4.4-14.2 6.7z m28.7-12.8l-6-14.8c5-2 10.2-4 15.3-5.9l5.5 15c-5 1.8-10 3.7-14.8 5.7z m29.6-10.8l-4.9-15.2c5.2-1.7 10.4-3.2 15.6-4.7l4.3 15.4c-5 1.4-10 2.9-15 4.5z m30.3-8.5L405 78c5.3-1.3 10.6-2.5 16-3.6l3.2 15.7c-5.2 1.1-10.4 2.3-15.5 3.5z m30.9-6.3L437 71.5c5.3-0.9 10.8-1.7 16.2-2.4l2 15.9c-5.2 0.7-10.4 1.5-15.6 2.3z m31.3-4l-1.5-15.9c5.4-0.5 10.9-0.9 16.3-1.2l0.9 16c-5.3 0.2-10.5 0.6-15.7 1.1zM502.7 81.6l-0.3-16c2.7 0 5.4-0.1 8.1-0.1v16c-2.5 0-5.2 0-7.8 0.1z" fill="#0A0408" /><path d="M510.6 960.4v-16c58.2 0 114.8-11.4 167.9-33.9 51.4-21.7 97.5-52.8 137.1-92.5 39.6-39.6 70.7-85.8 92.5-137.1C930.6 627.7 942 571.2 942 513s-11.4-114.8-33.9-168c-21.7-51.4-52.8-97.5-92.5-137.1-39.6-39.6-85.8-70.7-137.1-92.5-53.2-22.5-109.7-33.9-167.9-33.9v-16c60.4 0 119 11.8 174.2 35.2 53.3 22.5 101.1 54.8 142.2 95.9s73.4 88.9 95.9 142.2C946.2 393.9 958 452.5 958 513c0 60.4-11.8 119-35.2 174.2-22.5 53.3-54.8 101.1-95.9 142.2s-88.9 73.4-142.2 95.9c-55.1 23.3-113.7 35.1-174.1 35.1z" fill="#0A0408" /><path d="M510.6 879c-49.4 0-97.3-9.7-142.4-28.8-43.6-18.4-82.7-44.8-116.3-78.4-33.6-33.6-60-72.7-78.4-116.3-19.1-45.1-28.8-93-28.8-142.4h16c0 93.4 36.4 181.3 102.5 247.3C329.3 826.6 417.1 863 510.6 863s181.3-36.4 247.3-102.5 102.5-153.9 102.5-247.3S824 331.9 757.9 265.8C693.7 201.7 609 165.5 518.6 163.5v366.3h-16V147.4h8c49.4 0 97.3 9.7 142.4 28.8 43.6 18.4 82.7 44.8 116.3 78.4 33.6 33.6 60 72.7 78.4 116.3 19.1 45.1 28.8 93 28.8 142.4 0 49.4-9.7 97.3-28.8 142.4-18.4 43.6-44.8 82.7-78.4 116.3-33.6 33.6-72.7 60-116.3 78.4-45.1 18.9-93 28.6-142.4 28.6z" fill="#0A0408" /><path d="M514 973h-1c-12.5 0-22.6-10.1-22.6-22.6v-1c0-12.5 10.1-22.6 22.6-22.6h1c12.5 0 22.6 10.1 22.6 22.6v1c0 12.5-10.1 22.6-22.6 22.6z" fill="#DC444A" /><path d="M514 981h-1c-16.8 0-30.6-13.7-30.6-30.6v-1c0-16.8 13.7-30.6 30.6-30.6h1c16.8 0 30.6 13.7 30.6 30.6v1c0 16.9-13.7 30.6-30.6 30.6z m-0.9-46.1c-8 0-14.6 6.5-14.6 14.6v1c0 8 6.5 14.6 14.6 14.6h1c8 0 14.6-6.5 14.6-14.6v-1c0-8-6.5-14.6-14.6-14.6h-1z" fill="#0A0408" /><path d="M514 96.5h-1c-12.5 0-22.6-10.1-22.6-22.6v-1c0-12.5 10.1-22.6 22.6-22.6h1c12.5 0 22.6 10.1 22.6 22.6v1c0 12.5-10.1 22.6-22.6 22.6z" fill="#DC444A" /><path d="M514 104.5h-1c-16.8 0-30.6-13.7-30.6-30.6v-1c0-16.8 13.7-30.6 30.6-30.6h1c16.8 0 30.6 13.7 30.6 30.6v1c0 16.9-13.7 30.6-30.6 30.6z m-0.9-46c-8 0-14.6 6.5-14.6 14.6v1c0 8 6.5 14.6 14.6 14.6h1c8 0 14.6-6.5 14.6-14.6v-1c0-8-6.5-14.6-14.6-14.6h-1z" fill="#0A0408" /><path d="M481.1 528.9h-16v-16h16v16z m-32 0h-16v-16h16v16z m-32 0h-16v-16h16v16z m-32 0h-16v-16h16v16z m-32 0h-16v-16h16v16z m-32 0h-16v-16h16v16z m-32 0h-16v-16h16v16z m-32 0h-16v-16h16v16z m-32 0h-16v-16h16v16z m-32 0h-16v-16h16v16z m-32 0h-16v-16h16v16z" fill="#0A0408" /></svg>